<svg width="1200" height="480" viewBox="0 0 1200 480" fill="none" xmlns="http://www.w3.org/2000/svg">
  <rect width="1200" height="480" fill="#EAF1FA"/>
  <path d="M0 1H1200M0 479H1200" stroke="#D7E2EF"/>
  <g stroke="#AAB9CA" stroke-width="1.5" stroke-linecap="round" stroke-linejoin="round">
    <path d="M125 177H337"/>
    <path d="M125 213H291"/>
    <path d="M125 249H358"/>
    <path d="M125 285H262"/>
    <path d="M402 177L451 213L402 249"/>
    <path d="M501 240H568"/>
    <path d="M632 240H699"/>
    <path d="M763 177L714 213L763 249"/>
    <path d="M842 178V286"/>
    <path d="M842 232H921"/>
    <path d="M921 178V286"/>
    <path d="M921 232H1000"/>
    <path d="M1000 178V286"/>
  </g>
  <g fill="#5C6774">
    <circle cx="501" cy="240" r="4"/>
    <circle cx="600" cy="240" r="7" fill="#F2F6FD" stroke="#1A2331" stroke-width="1.5"/>
    <circle cx="699" cy="240" r="4"/>
    <circle cx="842" cy="178" r="4"/>
    <circle cx="842" cy="232" r="4"/>
    <circle cx="842" cy="286" r="4"/>
    <circle cx="921" cy="178" r="4"/>
    <circle cx="921" cy="232" r="4"/>
    <circle cx="921" cy="286" r="4"/>
    <circle cx="1000" cy="178" r="4"/>
    <circle cx="1000" cy="232" r="4"/>
    <circle cx="1000" cy="286" r="4"/>
  </g>
  <g fill="#1A2331" font-family="Arial, Helvetica, sans-serif">
    <text x="125" y="139" font-size="14" letter-spacing="1.4">ARGUMENT</text>
    <text x="526" y="207" font-size="14" letter-spacing="1.4">INTERPRET</text>
    <text x="842" y="139" font-size="14" letter-spacing="1.4">VERIFY</text>
  </g>
</svg>
