<svg id="Layer_1" data-name="Layer 1" xmlns="http://www.w3.org/2000/svg" viewBox="0 0 1500 1500"><defs><style>.cls-1{fill:#f15f69;}.cls-2{fill:#231f20;}.cls-2,.cls-3{stroke:#231f20;stroke-miterlimit:10;stroke-width:14px;}.cls-3{fill:none;}</style></defs><rect class="cls-1" width="1500" height="1500"/><path class="cls-2" d="M1102.53,691.14l-.4-.24a26.66,26.66,0,0,1-13-26.8l3.07-21.52a10.81,10.81,0,0,0-.91-6.11l-5.69-12.08a10.77,10.77,0,0,0-19.93,1.09l-8.88,25.91a10.74,10.74,0,0,1-12,7.13,37.17,37.17,0,0,1-22.45-12.86A118.76,118.76,0,0,1,1016,656c-32.88,47-92.09,59.6-126,63.48H863a127,127,0,0,1-66.73-18.93A127,127,0,0,0,750,683.28a127,127,0,0,0-46.27,17.27A127,127,0,0,1,637,719.48H610.08c-33.94-3.88-93.15-16.49-126-63.48a118.76,118.76,0,0,1-6.47-10.34,37.17,37.17,0,0,1-22.45,12.86,10.74,10.74,0,0,1-12-7.13l-8.88-25.91a10.77,10.77,0,0,0-19.93-1.09l-5.69,12.08a10.81,10.81,0,0,0-.91,6.11l3.07,21.52a26.66,26.66,0,0,1-13,26.8l-.4.24a26.65,26.65,0,0,0-13.23,23v56.37a26.66,26.66,0,0,0,12.13,22.35l2.86,1.86a26.67,26.67,0,0,1,11.56,16.86,26.68,26.68,0,0,0,13.62,18.08l2.43,1.28a26.67,26.67,0,0,0,15.21,3l50.45-5.22a10.77,10.77,0,0,1,11.88,10.71,43.74,43.74,0,0,0,12.85,31,42.54,42.54,0,0,0,4.16,3.66,43.65,43.65,0,0,0,26.86,9.19H687.73a21.49,21.49,0,0,0,20.47-14.9l19-58.8a7.48,7.48,0,0,1,7.1-5.17h31.4a7.48,7.48,0,0,1,7.1,5.17l19,58.8a21.49,21.49,0,0,0,20.47,14.9H951.75a43.65,43.65,0,0,0,26.86-9.19,42.54,42.54,0,0,0,4.16-3.66,43.74,43.74,0,0,0,12.85-31,10.77,10.77,0,0,1,11.88-10.71l50.45,5.22a26.67,26.67,0,0,0,15.21-3l2.43-1.28a26.68,26.68,0,0,0,13.62-18.08,26.67,26.67,0,0,1,11.56-16.86l2.86-1.86a26.66,26.66,0,0,0,12.13-22.35V714.17A26.65,26.65,0,0,0,1102.53,691.14Zm-493.39,142a43.42,43.42,0,1,1,43.42-43.41A43.41,43.41,0,0,1,609.14,833.14Zm281.72,0a43.42,43.42,0,1,1,43.41-43.41A43.41,43.41,0,0,1,890.86,833.14Z"/><path class="cls-3" d="M1022.42,645.66a37.2,37.2,0,0,1-8.36-19.28l-5.67-45.84h0l-10.64-86.06h0"/><path class="cls-3" d="M978.61,874.1q-17.33,51.78-34.67,103.55A206.19,206.19,0,0,1,901.89,1046l-55.84,60.26a97,97,0,0,1-71.2,31.09H745.13"/><path class="cls-3" d="M750,963.41h0a37.37,37.37,0,0,0,13.73-5.61,21.54,21.54,0,0,1,7.53-3.16,37.83,37.83,0,0,0,24.26-16.16l4.88-7.55a15.51,15.51,0,0,0,2.19-5.3c.16-.75.3-1.51.43-2.28,3.16-18.35-1.33-34.87-6.59-47"/><path class="cls-3" d="M477.58,645.66a37.2,37.2,0,0,0,8.36-19.28l5.67-45.85,10.64-86.07"/><path class="cls-3" d="M754.87,1137.32H725.15a97,97,0,0,1-71.2-31.09L598.11,1046a206.19,206.19,0,0,1-42.05-68.32q-17.34-51.78-34.67-103.55"/><path class="cls-3" d="M703.56,876.35c-5.26,12.13-9.75,28.65-6.59,47,.13.77.27,1.53.43,2.28a15.51,15.51,0,0,0,2.19,5.3l4.88,7.55a37.83,37.83,0,0,0,24.26,16.16,21.54,21.54,0,0,1,7.53,3.16A37.37,37.37,0,0,0,750,963.41h0"/><path class="cls-3" d="M502.25,494.47h0C536.5,417.93,634.48,362.68,750,362.68s213.5,55.25,247.75,131.78h0"/><polyline class="cls-3" points="750 1059.45 750 1059.45 775 1046.15"/><path class="cls-3" d="M750,998.76h0l1.62,0a7.92,7.92,0,0,0,5.61-2.57l1.7-1.89a7.82,7.82,0,0,1,7.56-2.37l53.07,12.23a7.84,7.84,0,0,1,6.06,7.58l0,2.76a7.81,7.81,0,0,1-4.16,6.95L775,1046.15l-25,13.3h0"/><path class="cls-3" d="M750,998.76h0l-1.59,0a7.88,7.88,0,0,1-5.61-2.57l-1.71-1.89a7.82,7.82,0,0,0-7.56-2.37l-53.06,12.23a7.82,7.82,0,0,0-6.06,7.58l0,2.76a7.8,7.8,0,0,0,4.15,6.95l46.64,24.82L750,1059.45h0"/><polyline class="cls-3" points="750 1059.45 750 1059.45 725.15 1046.23"/><path class="cls-3" d="M674.38,1011.7l63.79,11.84a67.69,67.69,0,0,0,22,.43l65.47-9.51"/></svg>